HIERARCHY
ROOT Hips
{
	OFFSET	0.00	0.00	0.00
	CHANNELS 6 Xposition Yposition Zposition Zrotation Xrotation Yrotation
	JOINT LeftUpLeg
	{
		OFFSET	 0.126116	-0.014019	-0.065224
		CHANNELS 3 Zrotation Xrotation Yrotation
		JOINT LeftLeg
		{
			OFFSET	 0.000000	 0.000000	 0.569914
			CHANNELS 3 Zrotation Xrotation Yrotation
			JOINT LeftFoot
			{
				OFFSET	 0.000000	 0.000000	 0.544423
				CHANNELS 3 Zrotation Xrotation Yrotation
				JOINT LeftToeBase
				{
					OFFSET	 0.000000	 0.000000	 0.207117
					CHANNELS 3 Zrotation Xrotation Yrotation
					End Site
					{
						OFFSET	 0.000000	 0.000000	 0.207117
					}
				}
			}
		}
	}
	JOINT RightUpLeg
	{
		OFFSET	-0.124023	-0.008373	-0.065224
		CHANNELS 3 Zrotation Xrotation Yrotation
		JOINT RightLeg
		{
			OFFSET	 0.000000	 0.000000	 0.570047
			CHANNELS 3 Zrotation Xrotation Yrotation
			JOINT RightFoot
			{
				OFFSET	 0.000000	 0.000000	 0.544354
				CHANNELS 3 Zrotation Xrotation Yrotation
				JOINT RightToeBase
				{
					OFFSET	 0.000000	 0.000000	 0.207540
					CHANNELS 3 Zrotation Xrotation Yrotation
					End Site
					{
						OFFSET	 0.000000	 0.000000	 0.207540
					}
				}
			}
		}
	}
	JOINT Spine
	{
		OFFSET	 0.000184	-0.007763	 0.117403
		CHANNELS 3 Zrotation Xrotation Yrotation
		JOINT Spine1
		{
			OFFSET	 0.000000	 0.000000	 0.137269
			CHANNELS 3 Zrotation Xrotation Yrotation
			JOINT Spine2
			{
				OFFSET	 0.000000	 0.000000	 0.156879
				CHANNELS 3 Zrotation Xrotation Yrotation
				JOINT LeftShoulder
				{
					OFFSET	 0.080501	-0.002496	 0.160144
					CHANNELS 3 Zrotation Xrotation Yrotation
					JOINT LeftArm
					{
						OFFSET	 0.000000	 0.000000	 0.164363
						CHANNELS 3 Zrotation Xrotation Yrotation
						JOINT LeftForeArm
						{
							OFFSET	 0.000000	 0.000000	 0.364576
							CHANNELS 3 Zrotation Xrotation Yrotation
							JOINT LeftHand
							{
								OFFSET	 0.000000	 0.000000	 0.360812
								CHANNELS 3 Zrotation Xrotation Yrotation
								JOINT LeftHandIndex1
								{
									OFFSET	 0.000000	 0.000000	 0.086006
									CHANNELS 3 Zrotation Xrotation Yrotation
									JOINT LeftHandIndex2
									{
										OFFSET	 0.000000	 0.000000	 0.047236
										CHANNELS 3 Zrotation Xrotation Yrotation
										JOINT LeftHandIndex3
										{
											OFFSET	-0.004284	-0.000551	 0.038166
											CHANNELS 3 Zrotation Xrotation Yrotation
											End Site
											{
												OFFSET	-0.004284	-0.000551	 0.038166
											}
										}
									}
								}
							}
						}
					}
				}
				JOINT Neck
				{
					OFFSET	 0.000000	 0.000000	 0.176489
					CHANNELS 3 Zrotation Xrotation Yrotation
					JOINT Head
					{
						OFFSET	 0.000000	-0.001747	 0.077940
						CHANNELS 3 Zrotation Xrotation Yrotation
						End Site
						{
							OFFSET	 0.000000	-0.001747	 0.077940
						}
					}
				}
				JOINT RightShoulder
				{
					OFFSET	-0.080363	 0.000306	 0.159706
					CHANNELS 3 Zrotation Xrotation Yrotation
					JOINT RightArm
					{
						OFFSET	 0.000000	 0.000000	 0.164196
						CHANNELS 3 Zrotation Xrotation Yrotation
						JOINT RightForeArm
						{
							OFFSET	 0.000000	 0.000000	 0.365611
							CHANNELS 3 Zrotation Xrotation Yrotation
							JOINT RightHand
							{
								OFFSET	 0.000000	 0.000000	 0.360648
								CHANNELS 3 Zrotation Xrotation Yrotation
								JOINT RightHandIndex1
								{
									OFFSET	 0.000000	 0.000000	 0.069977
									CHANNELS 3 Zrotation Xrotation Yrotation
									JOINT RightHandIndex2
									{
										OFFSET	 0.000000	 0.000000	 0.052305
										CHANNELS 3 Zrotation Xrotation Yrotation
										JOINT RightHandIndex3
										{
											OFFSET	 0.009002	-0.000782	 0.042196
											CHANNELS 3 Zrotation Xrotation Yrotation
											End Site
											{
												OFFSET	 0.009002	-0.000782	 0.042196
											}
										}
									}
								}
							}
						}
					}
				}
			}
		}
	}
}
MOTION
Frames:    7
Frame Time: 0.03333334
 0.000145	 0.045751	 1.232325	-0.001938	 0.003726	 0.145556	 25.581220	-14.191200	 175.516200	 0.953852	-32.040990	-2.063374	-20.491270	 78.557210	 15.157180	-2.385833	 28.452760	 0.000004	-25.846780	-15.293290	-176.299700	-0.939586	-32.289730	 2.045042	 16.751130	 77.965040	-11.380370	 2.384658	 28.388730	 0.000004	 31.242850	 2.710546	 0.273471	-1.855441	 3.698386	-0.689966	 5.617955	-4.588857	 1.212054	-91.776210	 78.527430	-180.000000	 43.656110	 32.230990	-49.612370	-25.300020	 3.217530	-9.733834	-39.151920	 1.050546	-4.126926	-2.635965	 4.993658	 6.788941	-5.165319	 0.784187	 3.516649	-5.225038	 0.466231	 0.424329	-0.000002	-3.783157	-0.089647	 5.464632	 4.725790	-0.225675	 89.782140	 78.203900	 180.000000	 1.453875	 12.751360	 106.692800	-17.191420	 2.902663	 9.866500	 13.897740	-1.342378	-5.976521	 6.112037	 4.509576	-0.364401	 4.968462	 1.518543	-9.347576	 5.168945	 0.703820	 2.021906
 0.000080	 0.047103	 1.233351	-0.001799	 0.004757	 0.128568	 25.602050	-14.011960	 175.530500	 0.970225	-31.652070	-2.032346	-20.030190	 78.362460	 14.684520	-2.385833	 28.452760	 0.000004	-25.860350	-15.203510	-176.312000	-0.953696	-31.952820	 2.018504	 16.240710	 77.749060	-10.850330	 2.384658	 28.388730	 0.000004	 24.729110	 2.699086	 0.245238	-1.605099	 3.730876	-0.593561	 4.863063	-4.665327	 1.052181	-91.776230	 78.527470	-180.000000	 43.859180	 32.231000	-49.798530	-20.920050	 1.882556	-7.464940	-39.618690	 1.101032	-4.115032	-2.635965	 4.993658	 6.788941	-5.165319	 0.784187	 3.516649	-5.225038	 0.466231	 0.424329	-0.000002	-3.783157	-0.089647	 4.727337	 4.787414	-0.197739	 89.782100	 78.203890	 180.000000	 1.317530	 12.951990	 106.704100	-21.723010	 1.556345	 7.572755	 14.382970	-1.512940	-6.009664	 6.112037	 4.509576	-0.364401	 4.968462	 1.518543	-9.347576	 5.168945	 0.703820	 2.021906
 0.000050	 0.048588	 1.234222	-0.002439	 0.006616	 0.106762	 25.622400	-13.857640	 175.550500	 0.984232	-31.313130	-2.005518	-19.631560	 78.188520	 14.275650	-2.385833	 28.452760	 0.000004	-25.870280	-15.156970	-176.326000	-0.964930	-31.680650	 1.997203	 15.771810	 77.555840	-10.361780	 2.384658	 28.388730	 0.000004	 14.414110	 2.686385	 0.201896	-1.238488	 3.765243	-0.456359	 3.759949	-4.750937	 0.816502	-91.776210	 78.527450	-180.000000	 44.204400	 32.273170	-50.179160	-15.280010	 0.730689	-4.408201	-40.176870	 1.155340	-4.103414	-2.635965	 4.993658	 6.788941	-5.165319	 0.784187	 3.516649	-5.225038	 0.466231	 0.424329	-0.000002	-3.783157	-0.089647	 3.652871	 4.864683	-0.155232	 89.782190	 78.203890	 179.999900	 1.313961	 13.245640	 106.661200	-27.559370	 0.394270	 4.485112	 14.855850	-1.604011	-6.051906	 6.112037	 4.509576	-0.364401	 4.968462	 1.518543	-9.347576	 5.168945	 0.703820	 2.021906
-0.000012	 0.049952	 1.235355	-0.003157	 0.007860	 0.081164	 25.647940	-13.647170	 175.570900	 1.002348	-30.866250	-1.970440	-19.144570	 77.964420	 13.775920	-2.385833	 28.452760	 0.000004	-25.882240	-15.051880	-176.330200	-0.980236	-31.303460	 1.967894	 15.261210	 77.318370	-9.830533	 2.384658	 28.388730	 0.000004	 3.313270	 2.676499	 0.200666	-0.848469	 3.792816	-0.389009	 2.597840	-4.814097	 0.600519	-91.776180	 78.527430	 180.000000	 44.595680	 32.360550	-50.665060	-9.807168	 0.217413	-1.363076	-40.692670	 1.199725	-4.095199	-2.635965	 4.993658	 6.788941	-5.165319	 0.784187	 3.516649	-5.225038	 0.466231	 0.424329	-0.000002	-3.783157	-0.089647	 2.520859	 4.926298	-0.108470	 89.782100	 78.203850	 180.000000	-0.933807	 13.309740	 106.307500	-33.067750	-0.124965	 1.406431	 14.489280	-1.404132	-6.096583	 6.112037	 4.509576	-0.364401	 4.968462	 1.518543	-9.347576	 5.168945	 0.703820	 2.021906
-0.000157	 0.051382	 1.237006	-0.001933	 0.009994	 0.050254	 25.681060	-13.333020	 175.591200	 1.028384	-30.205840	-1.919200	-18.480190	 77.636780	 13.093910	-2.385833	 28.452760	 0.000004	-25.901760	-14.854320	-176.325800	-1.002908	-30.731490	 1.923891	 14.628650	 76.986180	-9.172997	 2.384658	 28.388730	 0.000004	-8.532895	 2.671104	 0.141649	-0.425032	 3.805070	-0.196300	 1.315329	-4.854544	 0.305001	-91.776170	 78.527470	 180.000000	 45.021280	 32.474050	-51.228550	-4.116002	-0.015131	-2.737627	-41.220980	 1.239296	-4.089589	-2.635965	 4.993658	 6.788941	-5.165319	 0.784187	 3.516649	-5.225038	 0.466231	 0.424329	-0.000002	-3.783157	-0.089647	 1.278389	 4.968688	-0.055482	 89.782100	 78.203850	 180.000000	-5.818195	 13.657190	 105.594400	-38.093940	-0.354203	 2.747212	 14.028560	-1.381287	-6.038917	 6.112037	 4.509576	-0.364401	 4.968462	 1.518543	-9.347576	 5.168945	 0.703820	 2.021906
-0.000294	 0.052799	 1.238673	-0.000160	 0.012112	 0.014975	 25.704660	-13.127010	 175.619400	 1.044960	-29.773660	-1.886040	-18.053110	 77.416540	 12.655070	-2.385833	 28.452760	 0.000004	-25.921370	-14.650820	-176.317400	-1.025545	-30.143820	 1.879219	 14.016060	 76.645070	-8.535113	 2.384658	 28.388730	 0.000004	-20.065390	 2.670852	 0.089613	-0.023428	 3.804891	 0.001604	 0.031575	-4.864508	-0.003500	-91.776170	 78.527430	 180.000000	 45.493050	 32.636730	-51.907420	 1.650595	-0.852776	-5.951196	-41.764750	 1.274092	-4.086668	-2.635965	 4.993658	 6.788941	-5.165319	 0.784187	 3.516649	-5.225038	 0.466231	 0.424329	-0.000002	-3.783157	-0.089647	-0.032057	 4.983597	 0.001381	 89.782100	 78.203890	-180.000000	-12.100150	 14.813370	 103.742600	-42.273680	-1.179378	 5.935209	 14.661360	-1.946314	-5.814311	 6.112037	 4.509576	-0.364401	 4.968462	 1.518543	-9.347576	 5.168945	 0.703820	 2.021906
-0.000404	 0.054225	 1.240157	 0.002123	 0.010687	-0.030846	 25.725590	-12.960250	 175.658700	 1.057494	-29.440380	-1.860659	-17.723130	 77.243940	 12.315480	-2.385833	 28.452760	 0.000004	-25.937000	-14.475980	-176.300400	-1.045443	-29.612320	 1.839278	 13.464590	 76.330360	-7.959068	 2.384658	 28.388730	 0.000004	-29.919840	 2.676422	 0.024264	 0.474568	 3.798926	 0.233884	-1.416154	-4.843950	-0.335897	-91.776180	 78.527450	 180.000000	 45.987790	 32.823640	-52.660360	 7.345725	-2.336514	-9.008486	-42.321170	 1.304588	-4.085222	-2.635965	 4.993658	 6.788941	-5.165319	 0.784187	 3.516649	-5.225038	 0.466231	 0.424329	-0.000002	-3.783157	-0.089647	-1.364697	 4.967008	 0.059179	 89.782100	 78.203850	 180.000000	-19.260140	 17.157790	 100.785000	-45.684440	-2.643825	 8.970393	 16.636370	-3.006130	-5.371269	 6.112037	 4.509576	-0.364401	 4.968462	 1.518543	-9.347576	 5.168945	 0.703820	 2.021906
